<svg id="Camada_1" data-name="Camada 1" xmlns="http://www.w3.org/2000/svg" viewBox="0 0 1857.53 568.17"><defs><style>.cls-1{fill:#99ca2c;}.cls-2{fill:#034b74;}.cls-3{fill:#074e77;}.cls-4{fill:#9bcb30;}.cls-5{fill:#064c75;}.cls-6{fill:#9aca2d;}.cls-7{fill:#eef4f6;}.cls-8{fill:#f8fcea;}.cls-9{fill:#0d77ba;}.cls-10{fill:#a6cb4a;}.cls-11{fill:#0e78bb;}.cls-12{fill:#3788b4;}.cls-13{fill:#f9fbf0;}.cls-14{fill:#e7eef1;}</style></defs><path class="cls-1" d="M653.61,420.08c29.66-10.55,58.44-24.37,89.14-31,84.45-18.28,180.42,22.71,203,83.93,29.2,79,.69,159.25-73.12,188.67-60.65,24.17-124.6,21.12-186.74-1-19.49-6.93-39.06-13.67-58.6-20.5C566.54,560.85,577.7,467.39,653.61,420.08Z" transform="translate(-31.23 -110.38)"/><path class="cls-2" d="M1488.87,455.24q-41.32,1.62-82.66,3.24c-16,.61-21.48,9-21.94,22.37-.52,14.63,7.47,20.25,22.79,20.19,27.67-.11,55.39,1.1,83-.12,27-1.19,43.68,2.51,43.13,33.07-.5,27.64-10.56,37.75-41,35.75-27.51-1.81-55.3-.36-83-.24-13.84.06-25.18,2.5-24.89,18.58s12.36,17.69,25.74,17.78c27.66.18,55.34.48,83,.11,26.06-.36,49.45-3.69,49.57,33,.11,33.74-16.73,36.49-46.37,35.86-78.69-1.67-157.43-1.36-236.15-1.83-13.62-45-17.22-90.36,8.32-132.53,26.73-44.15,22.55-84.28-10.07-123.62a18.73,18.73,0,0,1-1.85-17.8c6.54-8.51,16.13-12.43,26.82-14.85,55.3-5,110.77-1.91,166.17-3.11a252.44,252.44,0,0,1,77.54,13.2C1560.54,438.05,1523,445.77,1488.87,455.24Z" transform="translate(-31.23 -110.38)"/><path class="cls-3" d="M1244.76,568.71c-22.89,4.1-46,12.34-68.61,11.48-57.08-2.17-103.53-3.84-92.46,71.13,6,40.59-40.26,19.22-63,23-23.42,3.89-46,3.45-45.29-29.86,1.78-82.3.37-164.65.24-247,95.54-20.31,191.12-41.43,282.79,12l-1.13-1.22C1311.6,474,1308.05,519.45,1244.76,568.71Z" transform="translate(-31.23 -110.38)"/><path class="cls-4" d="M589.85,397.68l13,11.23c23.77,35.73,6.25,52.83-33.47,59.84-24.88,4.38-50.85-1-81.79,8.18,37.5,19.39,106.2-6.83,101.54,58.29-3.36,46.85-45.12,48.61-90,52.34,36.46,4.44,69.08-3.73,95,17.35,9.21,25.33,3.85,46.61-21.11,62.51-64,2-128-.77-191.85,1.4-29.43,1-45.14-10.21-48.26-34.32-9.1-70.49-5.12-141.37-4.21-212.08.26-19.82,16.46-31,38.74-30.28C441.59,394.56,516.08,385,589.85,397.68Z" transform="translate(-31.23 -110.38)"/><path class="cls-5" d="M1488.87,455.24c23.57-13.51,48.14-26.47,38.54-57.84,119.76-9.51,239.54-8.66,359.33-.57,6,50.39,3.31,93.15-75.56,79.09-27.93-5-29.63,13.65-29.34,32.53.6,38.35-3.67,77.13,1.29,115,6.26,47.69-19.08,51.87-62.53,51.79-45.17-.08-67.41-4.34-66.24-54.5C1657.88,470.69,1655,470.64,1488.87,455.24Z" transform="translate(-31.23 -110.38)"/><path class="cls-6" d="M256.45,672.61c-133.91,11.55-205.3-26.4-222.6-121-10.17-55.64,9-106.28,62.36-135.23,57.63-31.28,123.64-43.59,190.84-21.31,27.27,9.05,17,32.36,17.36,50.34.43,19.54-13.47,20-30.73,16.54-58-11.62-103.81,1.14-117,58.59-11,48,23.28,79,100,97.12C276.14,636,270.63,654.33,256.45,672.61Z" transform="translate(-31.23 -110.38)"/><path class="cls-7" d="M1258.4,409.47c-93.16-25-188-17.26-282.79-12q.9-18.66,1.81-37.31c44.06,9.36,81.89,9.38,106.87-35,12.69-22.56,43.31-33.93,71.65-32.53,49,2.41,74.67-19.43,89.46-57.46l-1.09.79c28.48-5,53.93,5.54,80.17,12.5,4,4.57,7.77,9.45,8.52,15.23,6.47,49.62-4.87,108.82,89.45,112.09-55.2,25.9-104.89,7.14-150.26,19.94Z" transform="translate(-31.23 -110.38)"/><path class="cls-8" d="M588.58,606.77c-36.14-.21-72.28-.18-108.41-.75-14.76-.23-32.12.51-31.45-19.27.66-19.37,18.23-17.75,32.67-18.38,14.85-.64,29.78-.8,44.62-.18,28.37,1.2,49.81-1.82,49.64-35.57-.16-32.52-22.44-31.3-46.77-31-14.88.19-29.78.29-44.64-.17-16.76-.52-35.68,1.32-36.38-21.49-.67-22,16.08-23.87,34.23-24,21.26-.14,42.83-2.19,63.71.3,41.73,5,58.91-11.29,57.09-47.38,15.89,7.46,32.21,13.35,50.72,11.17-67.4,67.71-44.37,144.15-26.27,220.1l-5.5-.53C581.39,652.68,607.78,611.09,588.58,606.77Z" transform="translate(-31.23 -110.38)"/><path class="cls-9" d="M1245.4,235.16c11.77,47.89,1.95,76.66-64,66.36-41.46-6.48-74.88,11.08-95.7,44-32.8,51.88-52.1,54.9-108.25,14.65,18.56-52.05,62-76.68,119.06-78C1152.93,280.89,1197.24,254.43,1245.4,235.16Z" transform="translate(-31.23 -110.38)"/><path class="cls-10" d="M256.45,672.61q.12-27.48.22-55c20.45-11.25,42.43-46.82,67.79,3.31,0-59.88,2.2-119.85-.77-179.61-2-40.11,13.73-56.36,58.46-52.57,69,5.84,139.33-10.82,207.7,8.9-66.07.14-132.18,1.48-198.21,0-40.45-.93-59.64,12.18-57.14,50,3.9,58.72,6.15,117.54,8.76,176.32,1.45,32.5,21.52,40.38,54.79,39.28,59.61-2,119.35-.67,179-.74q5,3.6,3.28,7.15t-3.4,3.52Z" transform="translate(-31.23 -110.38)"/><path class="cls-11" d="M1309.18,246c-26.77,23.59-44.11-2.14-64.87-10,21.35-46.39,64-78.74,98.54-125.57,1.7,36.05,36.23,44.07,47.59,68.08,5.87,12.38,32.52,15,21.79,35.84-9.86,19.14-25.75,21.93-47.11,15.52-14.66-4.4-15.9,8.32-19.44,16.81C1333.31,255.6,1321.54,237.53,1309.18,246Z" transform="translate(-31.23 -110.38)"/><path class="cls-12" d="M1309.18,246c12.57-17.84,24.43-3.61,36.5.66,4.72,98.56,4.75,98.4,118.2,117.45,12,2,23.28,7.25,34.89,11-1.46,32.07-33.93,7.4-45.88,20.26-60.24,6.21-120.5,5-180.73.39,42-15.33,87.45,1.74,150.65-17.15-98.79,5.57-86.38-52.78-100.3-93.89C1318.14,271.76,1333,253.55,1309.18,246Z" transform="translate(-31.23 -110.38)"/><path class="cls-13" d="M833.34,533.07c-2.26,35,.16,74.46-51.05,73.49-49.42-.94-50-40.8-49.95-72.79,0-33.91.87-78.85,50.83-78.25C833.62,456.13,828.51,502.05,833.34,533.07Z" transform="translate(-31.23 -110.38)"/><path class="cls-14" d="M1118.49,444.65c33.45-2.25,57.46,8.22,58.75,39.49,1.43,34.53-25.66,44.1-58.82,46.91-40.39,3.41-37.51-20.36-37.72-44.37C1080.48,461.92,1079.43,438.25,1118.49,444.65Z" transform="translate(-31.23 -110.38)"/></svg>