<?xml version="1.0" standalone="no"?>
<!DOCTYPE svg PUBLIC "-//W3C//DTD SVG 20010904//EN"
 "http://www.w3.org/TR/2001/REC-SVG-20010904/DTD/svg10.dtd">
<svg version="1.0" xmlns="http://www.w3.org/2000/svg"
 width="1370.000000pt" height="1370.000000pt" viewBox="0 0 1370.000000 1370.000000"
 preserveAspectRatio="xMidYMid meet">
<metadata>
Created by potrace 1.14, written by Peter Selinger 2001-2017
</metadata>
<g transform="translate(0.000000,1370.000000) scale(0.100000,-0.100000)"
fill="#000000" stroke="none">
<path d="M9728 10845 c-1 -1 -55 -6 -118 -10 -63 -3 -133 -8 -155 -10 -85 -7
-172 -16 -215 -21 -25 -3 -61 -7 -80 -9 -62 -7 -114 -14 -155 -21 -22 -4 -55
-7 -72 -8 -18 0 -33 -4 -33 -9 0 -4 -3 -6 -8 -3 -4 2 -30 0 -57 -5 -28 -5 -68
-12 -90 -14 -22 -3 -62 -10 -90 -15 -27 -5 -63 -12 -80 -15 -16 -3 -41 -7 -55
-10 -14 -3 -38 -8 -55 -11 -16 -2 -41 -7 -55 -9 -14 -3 -36 -7 -50 -10 -14 -3
-36 -7 -50 -10 -35 -7 -58 -12 -115 -25 -27 -6 -62 -13 -77 -15 -15 -2 -44 -8
-65 -14 -38 -10 -81 -20 -118 -26 -11 -2 -48 -11 -82 -20 -35 -9 -71 -18 -80
-20 -10 -1 -36 -8 -58 -13 -22 -6 -51 -13 -65 -16 -14 -2 -56 -12 -95 -21 -86
-21 -87 -21 -105 -28 -12 -4 -143 -37 -210 -52 -8 -2 -60 -15 -115 -29 -55
-15 -109 -28 -120 -30 -11 -2 -55 -14 -98 -26 -43 -12 -89 -24 -102 -26 -14
-2 -36 -9 -50 -14 -14 -5 -25 -6 -25 -2 0 4 -4 2 -8 -5 -9 -15 -8 -666 2 -681
4 -7 4 -12 -1 -12 -10 0 -9 -122 0 -138 4 -6 4 -13 0 -15 -10 -6 -9 -59 1 -75
3 -6 3 -13 -2 -15 -8 -6 -7 -70 1 -84 3 -5 2 -15 -3 -23 -5 -8 -5 -21 0 -31 5
-9 6 -19 3 -23 -8 -8 -7 -102 2 -115 3 -5 1 -12 -5 -16 -6 -4 -7 -13 -1 -23 6
-11 6 -24 0 -35 -6 -9 -6 -17 -2 -17 10 0 10 -47 0 -56 -3 -4 -3 -14 1 -23 5
-9 7 -27 5 -41 -4 -29 -4 -23 0 -117 1 -40 -2 -73 -7 -73 -4 0 -4 -6 1 -12 7
-9 9 -758 8 -2093 -2 -1144 -3 -2087 -4 -2095 -1 -8 0 -26 2 -40 2 -14 -1 -33
-5 -42 -5 -11 -5 -18 1 -18 6 0 8 -6 5 -13 -8 -23 -10 -97 -2 -97 4 0 4 -10 0
-23 -9 -27 -8 -762 1 -797 4 -14 10 -45 13 -70 4 -25 11 -56 16 -70 5 -14 12
-36 14 -50 3 -13 24 -60 46 -103 65 -125 156 -202 289 -247 77 -26 208 -40
267 -29 17 4 35 3 38 -2 3 -5 9 -7 14 -4 8 5 34 9 120 20 25 3 54 7 65 9 11 2
36 6 55 10 19 3 46 9 60 12 33 7 222 7 285 -1 28 -3 64 -8 80 -10 28 -3 56 -7
158 -21 43 -6 60 -9 157 -21 73 -8 305 -10 354 -1 78 13 157 52 208 102 93 91
129 213 123 414 -2 70 -6 141 -8 157 -5 34 -14 116 -23 220 -15 155 -8 565 10
670 3 17 8 44 10 60 3 17 10 48 15 69 5 22 9 42 9 45 -1 3 1 13 4 21 3 8 13
41 22 73 9 31 24 74 33 95 9 20 17 39 18 42 5 18 36 75 71 131 55 86 149 187
222 235 31 22 59 42 62 46 5 6 105 53 185 88 27 11 112 36 150 44 17 4 40 9
53 11 12 3 30 7 40 9 9 2 40 7 67 10 28 4 61 9 75 11 127 19 539 24 845 9 265
-12 365 -8 555 21 48 7 200 39 235 49 6 2 28 7 50 11 49 11 47 10 65 17 16 6
87 25 129 34 13 3 32 9 43 15 10 5 18 7 18 5 0 -3 12 -1 28 5 26 10 37 13 82
23 11 3 24 7 28 10 5 3 19 7 33 10 13 3 83 21 154 41 136 38 151 42 199 49 37
6 277 245 436 435 25 29 50 59 55 65 47 49 265 358 288 406 4 8 16 29 26 45
33 51 128 245 164 335 48 117 106 303 113 359 3 19 6 37 9 41 2 4 7 22 10 41
6 34 8 45 22 164 9 72 9 397 0 475 -8 75 -16 130 -22 160 -3 14 -8 36 -10 50
-6 31 -34 160 -40 180 -54 200 -157 492 -185 525 -5 6 -8 12 -8 15 1 11 -51
123 -121 260 -41 80 -79 155 -85 167 -6 13 -14 23 -18 23 -5 0 -8 4 -8 9 0 13
-112 205 -122 209 -4 2 -8 10 -8 17 0 7 -11 27 -25 43 -13 16 -22 32 -18 35 3
4 -2 9 -11 13 -9 3 -16 11 -16 16 0 6 -23 45 -51 87 -44 66 -64 85 -157 149
-59 40 -117 78 -129 85 -12 7 -64 37 -115 68 -51 31 -118 69 -148 85 -30 16
-57 31 -60 34 -10 10 -157 80 -169 80 -6 0 -11 5 -11 12 0 6 -3 8 -6 5 -4 -4
-19 2 -34 13 -16 11 -32 20 -38 20 -5 0 -34 11 -63 24 -76 34 -133 59 -139 60
-8 2 -103 37 -125 46 -11 5 -49 18 -85 30 -36 11 -73 25 -82 30 -10 6 -27 10
-38 10 -11 0 -28 4 -38 9 -18 10 -85 30 -117 36 -11 2 -21 4 -22 5 -2 2 -6 3
-10 4 -5 1 -57 14 -118 29 -60 14 -125 29 -144 32 -19 3 -38 8 -42 11 -5 3
-28 7 -51 9 -24 2 -54 7 -68 10 -26 6 -59 11 -124 20 -21 3 -52 8 -69 11 -17
3 -56 7 -87 10 -30 2 -73 6 -95 9 -104 13 -214 17 -507 20 -174 2 -318 2 -320
0z"/>
<path d="M3915 10582 c-2 -2 -51 -5 -110 -8 -59 -2 -120 -6 -134 -9 -29 -5
-116 -16 -170 -20 -20 -2 -36 -4 -36 -5 0 -1 -11 -3 -25 -4 -14 -2 -49 -8 -78
-14 -29 -7 -56 -11 -60 -10 -4 0 -14 -2 -22 -5 -8 -3 -31 -8 -50 -11 -57 -8
-301 -70 -400 -101 -109 -35 -286 -97 -319 -112 -18 -8 -39 -16 -45 -18 -6 -1
-24 -7 -39 -13 -16 -7 -33 -12 -38 -12 -5 0 -9 -4 -9 -10 0 -5 -3 -9 -7 -8
-26 5 -454 -203 -633 -308 -47 -28 -96 -57 -110 -65 -14 -8 -27 -16 -30 -19
-10 -10 -45 -31 -62 -36 -10 -4 -18 -10 -18 -15 0 -5 -4 -9 -9 -9 -13 0 -194
-123 -291 -198 -187 -145 -424 -383 -541 -544 -21 -29 -44 -60 -52 -68 -24
-26 -147 -219 -147 -230 0 -5 -3 -10 -7 -10 -5 0 -13 -10 -19 -23 -6 -12 -43
-84 -82 -160 -39 -76 -71 -141 -72 -145 -3 -9 -11 -31 -50 -127 -18 -44 -34
-88 -36 -99 -2 -10 -8 -23 -13 -30 -5 -6 -9 -14 -9 -19 0 -4 -9 -38 -20 -75
-28 -94 -45 -155 -48 -167 -1 -5 -7 -30 -13 -55 -18 -69 -21 -83 -26 -110 -3
-14 -7 -36 -11 -50 -3 -14 -7 -36 -9 -50 -2 -14 -4 -25 -5 -25 -1 0 -3 -13 -5
-30 -2 -16 -7 -48 -10 -70 -3 -22 -8 -58 -11 -80 -2 -22 -6 -53 -9 -70 -25
-184 -27 -826 -1 -950 2 -11 7 -56 11 -100 4 -44 8 -82 10 -85 2 -3 6 -30 9
-60 4 -30 8 -62 11 -70 2 -8 7 -35 10 -60 4 -25 8 -52 9 -60 10 -59 19 -108
23 -125 3 -11 7 -31 9 -45 2 -14 10 -52 18 -86 8 -34 17 -72 20 -85 3 -13 17
-69 31 -124 15 -55 28 -107 30 -115 2 -8 4 -16 5 -17 2 -2 4 -7 5 -13 1 -5 4
-13 5 -17 1 -5 3 -12 4 -18 1 -5 5 -17 8 -25 4 -8 12 -33 18 -55 33 -113 150
-418 163 -423 4 -2 7 -10 7 -18 0 -7 9 -29 20 -49 11 -19 20 -37 20 -40 0 -9
71 -148 118 -230 77 -135 230 -360 287 -421 6 -6 24 -28 40 -50 73 -95 442
-444 469 -444 6 0 37 -24 61 -48 8 -6 16 -12 19 -12 3 0 27 -15 53 -34 94 -67
345 -204 476 -260 68 -29 102 -43 142 -59 47 -18 138 -51 145 -53 3 0 12 -3
20 -7 32 -13 116 -39 130 -41 8 -1 40 -10 70 -19 30 -9 66 -19 80 -21 14 -3
25 -5 25 -6 0 -2 36 -11 65 -16 14 -2 54 -11 90 -19 36 -8 79 -17 95 -20 72
-13 152 -27 170 -31 11 -1 45 -5 75 -8 30 -3 64 -8 75 -10 24 -5 138 -17 203
-22 219 -16 308 -19 602 -18 343 0 519 6 538 18 6 3 13 2 17 -4 4 -6 11 -7 17
-4 6 4 25 8 42 9 17 2 72 6 121 10 124 11 146 13 176 14 22 1 34 14 67 69 71
120 138 254 158 317 2 6 10 30 19 55 9 25 18 52 20 60 2 8 8 34 14 57 19 70
25 123 25 228 0 126 -7 182 -35 270 -13 39 -23 72 -24 75 -2 13 -85 169 -106
201 -82 119 -107 142 -169 154 -57 11 -455 151 -600 212 -190 79 -421 194
-525 261 -11 6 -35 20 -52 29 -18 9 -33 20 -33 25 0 4 -5 8 -10 8 -19 0 -221
147 -288 209 -18 17 -36 31 -39 31 -13 0 -208 209 -260 279 -32 42 -61 78 -65
79 -4 2 -8 9 -8 15 0 6 -6 18 -14 26 -21 24 -125 223 -147 283 -40 105 -81
251 -93 328 -3 19 -8 45 -10 58 -26 125 -21 463 8 627 3 17 8 48 11 70 4 22
11 60 17 85 9 42 12 55 22 106 2 11 11 44 20 72 8 29 15 54 16 57 3 22 80 256
95 290 11 27 41 93 81 180 8 17 27 53 44 80 16 28 36 64 46 80 21 36 115 165
152 207 118 135 268 255 422 340 57 30 212 97 237 101 10 1 23 5 28 9 11 7
157 42 215 52 19 3 46 8 59 11 123 24 508 24 651 1 14 -3 48 -8 75 -11 87 -12
99 -14 135 -20 19 -4 76 -16 125 -27 50 -11 102 -22 117 -23 14 -2 31 -6 37
-10 6 -3 24 -8 39 -11 15 -2 43 -7 62 -10 43 -8 107 -13 180 -15 57 -2 180 27
180 42 0 5 6 9 13 9 30 0 122 122 132 176 2 10 4 19 5 19 2 0 8 27 16 70 3 17
7 95 10 175 5 163 8 225 20 355 4 50 8 127 8 172 1 46 3 83 6 83 3 0 5 23 5
50 0 28 -2 50 -5 50 -3 0 -5 17 -6 38 -2 123 -44 260 -109 357 -29 44 -165
175 -165 159 0 -3 -12 3 -27 14 -28 19 -100 54 -118 58 -5 1 -28 10 -50 20
-22 10 -44 19 -50 20 -5 1 -53 18 -105 36 -52 19 -158 52 -235 72 -77 21 -147
40 -155 43 -8 3 -22 7 -30 8 -8 1 -40 7 -70 13 -30 7 -66 14 -80 16 -14 3 -25
5 -25 6 0 1 -9 3 -20 4 -45 6 -111 16 -130 20 -11 2 -47 7 -80 10 -33 4 -80 9
-103 12 -24 3 -78 7 -120 10 -43 2 -92 6 -110 7 -18 2 -35 0 -38 -5 -3 -5 -11
-5 -17 -1 -11 7 -235 11 -242 5z"/>
</g>
</svg>
